<?xml version="1.0" standalone="no"?>
<!DOCTYPE svg PUBLIC "-//W3C//DTD SVG 20010904//EN"
 "http://www.w3.org/TR/2001/REC-SVG-20010904/DTD/svg10.dtd">
<svg version="1.0" xmlns="http://www.w3.org/2000/svg"
 width="16.000000pt" height="16.000000pt" viewBox="0 0 1064.000000 1063.000000"
 preserveAspectRatio="xMidYMid meet">

<g transform="translate(0.000000,1063.000000) scale(0.100000,-0.100000)"
fill="#477B50" stroke="none">
<path d="M5112 10619 c-536 -18 -836 -82 -1485 -313 -548 -195 -716 -278
-1176 -584 -146 -97 -520 -404 -626 -513 -55 -57 -251 -281 -435 -497 -391
-458 -436 -524 -640 -937 -325 -657 -432 -1012 -524 -1745 -87 -685 -35 -1313
168 -2010 118 -407 283 -804 449 -1078 31 -50 64 -115 73 -142 16 -49 16 -53
-4 -108 -11 -31 -41 -115 -65 -187 -25 -71 -119 -344 -210 -605 -91 -261 -181
-527 -201 -590 -20 -63 -115 -347 -211 -630 -110 -325 -175 -530 -175 -555 0
-29 -3 -36 -10 -25 -13 20 -19 10 -26 -43 -6 -45 -6 -47 17 -47 41 0 70 12 65
25 -3 10 11 14 52 17 39 3 381 108 1097 337 572 183 1162 371 1310 418 357
112 325 114 632 -35 255 -123 386 -177 613 -250 267 -86 695 -181 945 -211
144 -17 451 -31 695 -31 423 0 730 35 1181 135 361 81 603 164 995 343 228
105 263 124 620 353 559 357 658 443 1161 1005 149 166 195 227 355 465 101
151 208 317 237 369 35 62 123 273 254 605 192 493 201 518 252 735 95 406
135 761 135 1213 l0 300 -95 526 c-100 554 -117 626 -191 842 -65 192 -114
309 -214 514 -109 222 -199 379 -344 600 -218 329 -421 570 -737 875 -354 340
-348 336 -795 625 -206 133 -377 236 -484 290 -837 422 -1611 581 -2658 544z
m763 -843 c262 -33 563 -90 742 -140 255 -72 668 -242 904 -372 191 -105 480
-301 647 -437 165 -135 439 -396 511 -487 96 -120 549 -761 598 -845 64 -109
300 -675 334 -800 17 -60 41 -145 54 -187 51 -161 86 -384 104 -663 6 -88 16
-214 22 -280 19 -195 -22 -705 -78 -970 -44 -214 -128 -482 -243 -780 -57
-147 -418 -790 -521 -928 -239 -319 -527 -608 -848 -850 -426 -323 -564 -404
-994 -589 -363 -155 -667 -237 -1161 -313 -255 -40 -685 -44 -968 -10 -350 41
-785 140 -1038 236 -47 17 -128 48 -180 67 -190 71 -460 210 -625 322 -100 68
-135 77 -210 52 -33 -11 -227 -72 -430 -135 -204 -63 -475 -151 -603 -196
-283 -98 -456 -150 -522 -158 l-50 -6 20 46 c46 104 510 1503 510 1538 0 26
-10 51 -35 85 -19 27 -53 75 -76 107 -44 63 -287 509 -352 646 -54 115 -107
266 -187 536 -126 428 -163 702 -163 1235 0 249 3 320 21 453 74 535 207 990
406 1384 53 105 126 213 403 598 l338 470 180 175 c247 240 425 376 765 586
391 242 771 402 1206 509 168 42 443 89 604 104 63 6 133 13 155 15 103 10
637 -3 760 -18z m-5841 -9741 c3 -8 1 -15 -4 -15 -6 0 -10 7 -10 15 0 8 2 15
4 15 2 0 6 -7 10 -15z"/>
<path d="M3574 7816 c-110 -25 -159 -58 -300 -201 -182 -183 -249 -288 -319
-498 -65 -195 -79 -287 -79 -522 0 -193 2 -220 28 -334 49 -219 183 -525 331
-756 227 -354 585 -818 803 -1038 340 -345 404 -403 665 -596 292 -216 317
-233 483 -324 170 -93 355 -173 619 -266 127 -45 293 -104 370 -131 77 -28
219 -69 315 -92 166 -40 183 -42 330 -42 113 -1 178 4 240 17 273 58 555 200
723 365 58 57 96 106 146 192 l68 115 38 204 c20 112 37 224 37 248 -3 110
-70 172 -292 268 -41 18 -248 116 -460 217 -427 205 -406 196 -473 209 -65 12
-126 -4 -167 -44 -18 -18 -121 -140 -228 -272 -235 -288 -246 -301 -296 -327
-47 -24 -77 -20 -201 29 -442 174 -912 489 -1210 809 -135 145 -313 373 -430
552 -108 166 -129 212 -120 261 10 53 34 87 162 228 174 194 249 316 260 429
5 50 0 67 -100 306 -58 139 -140 339 -182 443 -138 345 -229 505 -302 533 -15
6 -73 13 -128 16 -55 3 -138 8 -185 11 -54 3 -107 0 -146 -9z"/>
</g>
</svg>
