<?xml version="1.0" standalone="no"?>
<!DOCTYPE svg PUBLIC "-//W3C//DTD SVG 20010904//EN"
 "http://www.w3.org/TR/2001/REC-SVG-20010904/DTD/svg10.dtd">
<svg version="1.0" xmlns="http://www.w3.org/2000/svg"
 width="30.000000pt" height="30.000000pt" viewBox="0 0 1064.000000 1064.000000"
 preserveAspectRatio="xMidYMid meet">

<g transform="translate(0.000000,1064.000000) scale(0.100000,-0.100000)"
fill="#477B50" stroke="none">
<path d="M1986 10614 c-566 -88 -1180 -471 -1526 -951 -230 -320 -398 -730
-440 -1074 -8 -69 -10 -947 -8 -3329 l3 -3235 27 -120 c90 -402 296 -800 582
-1127 262 -300 730 -584 1156 -701 234 -65 88 -61 2048 -64 l1782 -3 0 2085 0
2085 -665 0 -665 0 0 740 0 740 648 0 c390 0 653 4 662 10 13 8 15 84 16 582
1 589 8 733 49 1008 77 514 244 891 519 1178 301 313 666 492 1156 567 226 34
798 29 1205 -11 179 -18 347 -42 381 -54 l24 -10 -2 -692 -3 -693 -565 -5
-565 -5 -81 -28 c-217 -73 -382 -252 -446 -484 -21 -76 -22 -97 -26 -720 l-3
-643 792 0 792 0 -7 -67 c-10 -97 -47 -314 -127 -738 -38 -203 -78 -424 -89
-490 -11 -66 -22 -135 -25 -152 l-6 -33 -664 0 -665 0 0 -2085 0 -2085 623 0
c669 0 739 4 934 54 328 83 709 276 979 497 399 325 714 864 821 1404 17 85
18 262 18 3350 0 2665 -2 3274 -13 3335 -96 542 -422 1107 -826 1433 -338 272
-742 461 -1124 527 -112 20 -180 20 -3350 19 -2698 -1 -3252 -3 -3326 -15z"/>
</g>
</svg>
