<?xml version="1.0" standalone="no"?>
<!DOCTYPE svg PUBLIC "-//W3C//DTD SVG 20010904//EN"
 "http://www.w3.org/TR/2001/REC-SVG-20010904/DTD/svg10.dtd">
<svg version="1.0" xmlns="http://www.w3.org/2000/svg"
 width="30.000000pt" height="30.080000pt" viewBox="0 0 1065.000000 1068.000000"
 preserveAspectRatio="xMidYMid meet">

<g transform="translate(0.000000,1068.000000) scale(0.100000,-0.100000)"
fill="#477B50" stroke="none">
<path d="M2060 9356 l0 -1316 -210 0 -210 0 0 1270 0 1270 -22 0 c-33 -1 -99
-17 -210 -51 l-98 -31 0 -1229 0 -1229 -190 0 -190 0 0 1105 0 1105 -37 -15
c-76 -32 -142 -88 -291 -252 -187 -206 -263 -310 -347 -478 -111 -224 -174
-441 -216 -745 -26 -191 -35 -673 -24 -1224 l7 -366 1666 0 c1640 0 1666 0
1706 20 23 11 118 79 211 151 206 159 375 272 487 327 180 87 484 186 723 235
222 46 288 52 565 52 233 0 281 -3 395 -24 447 -80 813 -256 1260 -606 77 -60
160 -120 184 -132 l44 -23 1689 0 1688 0 0 503 c0 514 -9 769 -36 1007 -40
356 -96 575 -209 805 -163 334 -401 596 -759 836 -212 143 -424 230 -650 269
-145 24 -227 29 -606 35 -190 3 -375 12 -465 22 -135 15 -401 17 -2627 20
l-2478 4 0 -1316 0 -1315 -210 0 -210 0 -2 1285 -3 1285 -28 27 c-27 27 -30
28 -162 31 l-135 4 0 -1316z m7265 364 c140 -20 223 -67 266 -152 50 -97 54
-156 52 -698 -1 -539 -6 -598 -53 -724 -31 -81 -99 -149 -171 -171 -72 -21
-917 -34 -1108 -16 -205 19 -374 62 -385 99 -3 9 -13 67 -22 127 -23 160 -30
483 -22 948 9 452 7 444 80 516 64 65 70 65 433 71 590 10 859 10 930 0z"/>
<path d="M5175 7370 c-326 -24 -645 -127 -935 -304 -138 -85 -313 -218 -411
-316 -255 -253 -498 -697 -575 -1050 -16 -70 -19 -128 -19 -335 0 -354 30
-583 105 -806 157 -472 586 -947 1065 -1180 283 -138 559 -199 895 -199 562 0
1097 218 1485 605 308 306 507 698 590 1160 22 125 31 395 16 536 -73 708
-524 1350 -1177 1677 -319 160 -697 237 -1039 212z m320 -585 c351 -53 658
-208 910 -460 127 -127 214 -247 295 -410 118 -236 155 -409 147 -675 -6 -191
-30 -309 -96 -484 -80 -214 -196 -391 -366 -561 -219 -219 -462 -353 -758
-417 -147 -32 -424 -32 -585 0 -324 65 -562 190 -788 416 -227 227 -361 482
-426 808 -31 159 -31 417 1 568 68 324 205 568 452 805 339 325 782 475 1214
410z"/>
<path d="M180 6855 c-36 -8 -86 -16 -113 -20 l-47 -6 0 -2439 c0 -2647 -2
-2534 54 -2765 91 -371 279 -716 530 -973 292 -300 608 -491 970 -587 219 -59
-46 -55 3772 -55 3122 0 3521 2 3600 15 472 83 1081 517 1365 975 115 185 216
437 261 648 l23 107 3 2536 2 2537 -152 6 c-84 4 -256 14 -383 22 -327 20
-2472 21 -2500 0 -33 -24 -21 -77 46 -204 303 -571 353 -719 365 -1067 7 -176
-8 -589 -27 -755 -60 -540 -255 -929 -709 -1415 -334 -357 -654 -563 -1094
-704 -431 -138 -927 -163 -1386 -70 -421 85 -833 281 -1151 547 -188 158 -426
425 -566 636 -293 442 -417 950 -400 1644 4 183 9 236 31 340 52 244 150 500
317 829 l98 191 -77 7 c-42 3 -126 13 -185 21 -152 20 -2547 19 -2647 -1z"/>
</g>
</svg>
